<svg xmlns="http://www.w3.org/2000/svg" xmlns:xlink="http://www.w3.org/1999/xlink" viewBox="0 0 303 71" shape-rendering="geometricPrecision"  text-rendering="geometricPrecision" project-id="1154b685e76243dbb25eb15a98dd7974" export-id="480222e228fe47929ba341305bacdc67" fill='currentColor' stroke='currentColor'>
    <g transform="matrix(2.434904 0 0 2.434904 -927.15883 -1210.786432)">
        <g transform="matrix(0.187946 0 0 0.187941 358.99691 472.496969)">
            <g transform="matrix(0.1 0 0 -0.1 -0.433518 1024.276172)">
                <g transform="translate(-632.3471 261.918625)">
                    <path d="M5890,7565v-435h85h85v196c0,182,2,199,21,231c37,59,96,77,164,49c65-28,70-46,70-273v-203h84h84l-5,228c-4,218-5,229-30,283-32,70-77,105-152,120-71,15-116,3-181-46-25-19-50-35-56-35-8,0-10,48-8,158l4,157-82,3-83,3v-436Z"/>
                    <path d="M7288,7793c-1-115-2-310-2-435l-1-228h36c20,0,51-3,68-6c31-6,31-6,31,34c0,53,13,60,52,27c118-100,268-90,370,23c50,56,72,128,73,237c0,78-4,98-28,150-38,81-89,132-151,150-98,29-178,16-244-41l-42-36v144c0,197,4,188-86,188h-74l-2-207Zm343-174c74-25,119-92,119-176c0-104-35-162-112-185-126-38-240,123-183,260c20,46,51,81,90,98c37,16,44,17,86,3Z"/>
                    <path d="M4835,7761c-45-11-76-29-118-70l-38-36-32,37c-45,51-85,68-160,68-52,0-71-5-108-28-24-16-50-36-58-45-21-26-30-20-33,21l-3,37-77,3-78,3v-311-310h80h80l1,48c5,296,7,339,18,363c35,72,136,98,186,48c38-37,44-81,45-281v-178h80h80v195c0,212,4,233,56,274c42,33,96,28,142-13l37-34l3-211l3-211h80h79v223c0,125-5,239-11,260-11,42-68,111-108,131-34,18-109,26-146,17Z"/>
                    <path d="M3310,7742c-19-9-52-34-72-56l-38-38v51v51h-80-80v-310-310h85h86l-5,123c-5,173,4,250,34,283c31,34,95,63,137,64h31l4,80l3,80h-35c-19,0-51-8-70-18Z" transform="matrix(0.999991 -0.004142 0.004142 0.999991 -3.79487 3.4602)"/>
                    <path d="M3605,7735c-33-14-72-38-88-53l-27-28l39-38l40-39l59,26c66,30,116,34,165,14c41-18,57-37,64-80l5-34-113-6c-63-3-131-10-152-17-44-13-102-61-123-101-18-36-18-110,0-153c26-61,124-116,209-116c49,0,122,34,144,66c22,34,33,30,33-11v-35h81h81l-4,233c0,0-4,234-29,282-18,35-39,59-73,80-45,27-58,30-150,32-90,3-108,0-161-22Zm251-377c-9-59-27-82-81-108-56-27-105-21-135,17-24,31-26,61-5,91c21,28,63,40,154,41l74,1-7-42Z" transform="translate(23.98727 4.967279)"/>
                    <path d="M5360,7730c-73-41-105-74-138-140-24-49-27-66-27-155c0-86,3-107,25-148c28-56,105-132,155-153c53-22,202-19,268,6c53,20,117,72,117,94-1,18-88,88-95,76-4-6-28-22-55-35-110-56-230-15-255,88l-7,27l223,2l224,3-2,75c-4,107-45,187-126,244-57,40-60,41-155,44-92,2-100,1-152-28Zm210-115c30-15,83-92,74-107-3-4-68-8-145-8-119,0-139,2-139,15c0,26,28,72,56,94c32,25,111,28,154,6Z"/>
                    <path d="M6592,7513c3-209,5-242,22-273c41-77,99-115,188-126c65-8,108,8,167,61l41,37v-41-41h80h80v310v310h-85-85v-195c0-193,0-196-26-234-46-71-130-80-189-21l-30,30-3,210-3,210h-80-81l4-237Z"/>
                </g>
            </g>
            <g transform="translate(0.000001 0)">
                <g transform="matrix(0.021275 0 0 -0.022651 79.777974 325.013662)">
                    <path d="M6294,8490c-57-12-236-94-308-142-167-113-395-315-447-397l-16-25-54,16c-106,32-202,42-414,41-161-1-240-6-338-22-175-29-168-30-213,30-48,62-191,191-302,271-95,69-230,145-346,194-83,36-119,38-178,8-58-29-136-212-172-399-39-205-46-304-46-634l1-327-39-110c-45-125-68-247-78-416-4-77-10-118-18-118-19,0-238,19-293,25-44,5-1255.881318,125.99421-1273.881318,106.99421-25-27-27-52-5-70C1764.118682,6513.99421,3048,6378,3163,6365l191-21l7-29c3-17,14-64,22-106c9-42,19-83,22-91c4-11-12-17-71-27-129-22-1456.819313-310.997787-1475.819313-327.997787-37-33-16-83,33-83C1925.180687,5680.002213,3201,5952,3336,5991c56,16,106,29,111,29c6,0,19-19,29-42c18-40,94-147,163-228l30-35-20-65c-59-195-131-346-131-346s-151-311-188-424c-69-206-62-408,18-539l18-30-42-87c-89-182-208-590-235-805-15-120-5-345,20-464c20-96,80-256,107-286c15-16,13-19-23-37-53-28-160-142-185-199-49-111-30-257,42-328c38-37,83-54,225-86c55-13,314-6,406,11c64,12,277,40,302,40c13,0,506.999825,113,506.999825,82c0-54,.000048-103.249683.000048-103.249683s-56.99625-224.804147,14.00375-251.804147L4525,1775l340,1c376,1,605,15,641,39c38,25,47,55,52,171l4,111l91,7c254,18,355,9,837-71c148-25,409-24,508,1c91,23,147,63,180,130c69,137,18,324-113,416-28,19-61,43-74,52l-24,17l35,68c60,114,108,294,122,455c22,245-104,747-303,1201-11,27-46.000226,184.860141-46.000226,191.860141c0,8,62.000289-12.998351,105.000289.001649C7065.000679,4573.990011,6825.99798,4559.998964,7071,4574c18,29,19,54,19,419c0,402-1,408-43,455-19,21-28,22-167,22h-146l-16,33c-24,49-91,120-168,177l-69,51l62,72c71,82,99,125,117,180c9,29,16,37,29,34c157-49,1739.033617-443.835089,1771.033617-435.835089c43,11,39,72-5,96C8444.033617,5682.164911,6983,6056,6899,6075c-197,46-181,39-168,72c6,15,18,69,28,118l16,90l50,3c66,3,1970.385367,212.991479,1989.385367,219.991479c25,9,29,53,6,75C8801.385367,6671.991479,7117,6492,7019,6482c-57-6-134-14-170-17l-66-5-7,97c-12,164-47,313-117,497l-31,79l7,281c7,253,5,297-14,441-21,164-64,352-98,438-10,26-38,74-62,107-63,86-95,104-167,90ZM4490.021014,4432.993339l23.416002-1269.153226L4495.338,2275.103455L3823,2167c-98-14-239-29-314-32-131-5-136-5-156,17-54,59-59,125-13,178c38,45,40,87,4,101-37,13-58,4-98-42-41-49-60-118-50-184c6-46,6-47-17-40-82,25-100,130-45,250c41,90,99,121,280,150c87,15,122,16,191,8c77-9,89-14,125-47c39-35,41-36,70-21c100,52-8,162-181,187-67,9-193,6-244-7-16-4-29,8-62,57-70,103-96,211-109,438-11,216,23,421,123,725c65,199,114,315,133,315c6,0,10-4,10-10c0-19,49-42,75-36c43,11,33,53-27,122-28,32-65,88-82,124-30,62-31,71-31,195c0,122,2,137,35,235c19,58,82,197,139,310c63,124,119,252,143,324c51,156,53,159,80,145c18-10,24-8,40,11c33,41,19,70-65,134-65,49-207,252-192,275c3,6,25,11,48,12c97,2,173,51,148,97-16,30-41,34-112,17-35-8-82-15-104-15h-40l-22,74c-13,41-23,79-23,85c0,15,74,13,145-4c33-8,73-14,89-15c32,0,66,25,66,48c0,27-41,62-72,62-16,0-76,7-133,16l-104,16-7,46c-10,64,3,256,21,327c9,33,32,105,53,160l36,100-3,245c-5,406,26,676,100,886c44,125,65,164,89,164c29,0,263-123,338-178c36-26,85-61,111-78c25-17,105-92,177-167c151-157,141-153,294-116c71,18,128,22,340,26c260,5,300,2,483-38l58-13l135,142c75,78,163,163,195,188c108,83,253,174,309,194c30,11,69,27,85,34c43,21,51,19,76-15c38-53,88-187,109-287c40-199,52-360,49-672l-2-295l46-120c71-184,97-310,97-472v-62l-42-5c-24-3-89-10-146-16-126-12-142-20-142-64c0-58,14-62,166-41c74,10,137,15,141,11c9-9-16-137-32-162-12-19-19-20-65-13-29,4-74,15-101,24-62,21-90,17-109-17-28-52,10-77,154-100c39-6,72-12,74-13c6-5-111-195-141-227l-34-37-77,24c-212,65-418,78-615,37-126-26-175-49-247-115-67-61-92-108-101-187l-6-60h-406-407l-28.666487-319.980133c.001866-.002354-41.329616-.01191-41.329616-.01191s-411.003508-74.003295-411.003508-74.003295L4000,5063l-72-28c-195-75-328-174-328-242c0-17,36-53,53-53c6,0,46,28,87,62c94,77,201,128,366,174c135,37,264,52,348,40c51-8,106-47,106-76c0-15-8-17-70-12-88,6-120-11-120-63c0-46,21-56,101-49c85,8,143-11,147-47c3-26,2-26-80-33-93-8-128-29-128-76c0-49,29-63,109-55c39,4,71,5,71,1c0-19-26-56-47-65-13-6-67-21-120-32s-147-38-210-60c-177-61-232-72-390-74-78-2-146-6-152-9-17-11-13-51,7-68c36-32,92-41,209-34l64.187077,6q531.552645,160.848821,538.833937,162.993339ZM6190,5718c104-22,152-44,276-123c71-46,134-110,134-137c0-16-117-7-180,13-86,28-202,30-249,5-19-10-70-52-112-92-85-81-119-93-154-54-21,23-23,89-5,144c12,37,5,61-24,86-13,10-20,9-41-4-42-28-65-86-65-166c0-81-8-90-71-71-52,16-73,55-67,128c3,35,13,64,28,85c21,28,22,34,9,56-24,42-44,49-76,26-40-29-63-81-63-142c0-40-4-54-17-59-51-20-73,116-30,192c70,124,403,177,707,113Zm-801-341c15-39,67-75,118-83c29-4,62-19,90-40c73-56,154-69,211-34c32,20,32,20,69,0c54-29,95-25,174,16c62,33,93,60,139,123c15,20,24,21,395,21c209,1,388,1,398,1c16-1,17-23,15-368l-3-368-744-2c-535-2-747-6-757-14-27-22-31-77-26-333l5-260l25-23l25-23h461c346,0,465-3,474-12s12-92,12-310v-298l-26-10c-15-6-201-9-475-8l-450,2-25-26-26-25l2-701c1-664,0-701-17-706-54-16-314-30-573-30l-295-1-3,1293c-2,1085,0,1292,12,1292c19,0,104,77,121,109c20,39,14,225-8,268-10,18-17,47-17,65c0,64-21,112-66,153l-44,41v150c0,83,3,154,7,157c3,4,183,7,400,7h393l9-23Zm-899-254l-97,5c-68,3-124-1-183-13-47-9-92-17-100-18m2738.000073-532.138862c-23-13-193.000046,202.125914-324.000046,173.125914-113-26-121.999972-45.168547-539.999972-48.168547l-437.831228-60.827921L5550,4488c0,32,3,62,7,65c3,4,297,7,652,7c360,0,647.000073,9.861138,639.000073,4.861138ZM4202.000969,4398.995433l76.727324.000989C4366.728293,4431.996422,4474,4427,4483,4423c4-2,7-571,7-1264l-19.000172-1272.577096l12.000399,9.577519c21.00039,43.253705,29.999899,396.894657,20.999899,405.894657-4,4,23.004666,233.108357,21.004666,857.108357l-34.987826,1275.990018M6720,4308c50-119,147-386,190-527c103-335,116-625,39-886-25-83-42-117-82-167l-30-38-156,2c-139,2-164-1-223-21-105-35-152-102-112-159c19-28,45-28,70-1c54,61,164,78,343,55c183-24,257-65,307-171c52-110,13-235-73-235-13,0-15,9-9,58c9,76-15,155-59,199-39,39-77,43-99,11-22-31-20-47,11-93c38-55,42-119,11-165-22-33-27-35-88-38-66-3-224,11-315,28-238,46-379,62-535,64-91,0-209-3-262-7l-98-8v525v526l288,1c520,1,640,6,667,23c48,32,49,39,48,394-2,360-4,376-56,386-12,3-225,7-474,9-248,3-456,8-462,12-7,4-11,53-11,130l-3.831208,358.988887l432.557677,85.99619c406,4,466.273558-35.998025,544.273558-16.998025c48,12,153.000506-42.996751,166.000506-37.996751c14,5-67.000876-30.998068-61.000876-30.998068C6632.999657,4574.992233,6696,4364,6720,4308Z" transform="translate(11.219188 -3.858951)" stroke-width="5"/>
                    <path d="M4313.296452,7748.255362C4346.196103,7776.98216,4346,7791,4330,7821c-23,44-214,231-280,273-134,87-155,97-197,89-36-7-60-48-99-167-32-96-38-131-46-261-7-105-6-170,1-219c14-86,25-106,57-106-3.183213,14.323384,47.449337-18.191434,410.155943,219.452896" transform="translate(-21.295924 2.197287)"/>
                    <path d="M6220.013326,7489.965849C6237.326909,7472.035645,6324.77256,7426.456521,6330,7430c39,0,45,26,48,219c3,171,1,194-21,281-31,119-62,201-88,234-28,36-69,33-146-8-105-56-302-237-342-313-6-12-11-30-11-41c0-20,29-52,47-52c53.047064-8.943586,153.067868-106.113496,275.85695-166.96988" transform="translate(-8.858589 0.452896)"/>
                    <path d="M3856,6934c-9-8-16-19-16-24c0-13,28-38,50-45c21-7,22-9,40-115c27-157,156-324,279-361c70-20,191-23,261-5c144,37,272,114,302,184c37,83,9,252-42,252-28,0-41-31-30-71c12-41,13-129,1-147-13-21-52-6-169,65-128,78-404,212-520,254-94,33-133,36-156,13Zm126.998903-141.000141c10.114771-37.97038,3.521694-158.156244,40.999684-178.994822-37.311762-77.976943,158.545294-239.007891,268.001748-178.002024c23-21,59.000208-11.00066,111.000208-10.00066c80,2,89.834626,3.000707,125.834626,34.000707c28,23,40.109828,34.999482,71.109828,21.999482L4614,6522l-40-20c-55-28-199-55-252-48-94,13-125,28-194,99-38,37-75,82-85,100-18,35-43,122-43,151c0,21-106.001097,21.999859-17.001097-11.000141Z"/>
                    <path d="M6032,6900c-142-48-321-137-476-237-91-58-143-80-159-64-8,8-12,47-12,106c0,73-4,98-16,111-39,38-77-78-67-202c4-47,10-60,44-95c75-78,180-123,324-139c108-12,183,0,264,43c112,59,209,223,231,389c5,38,10,47,31,52c13,4,30,18,36,32c11,22,9,28-7,40-27,20-35,19-193-36Zm52-107c-16-66-47-134-92-199-38-56-58-74-103-97-116-58-238-58-368-1l-56,25-.000363-32.997788c36,13,66.000228-9.998919,85.000228-27.998919c74-70,191.999772-78.999999,257.999772-17.999999c49,47,101.998614,12.003437,276.001295,210.999154-12,34-9.541,51.999482,39.000227,136.997646C6166.958872,6866.972292,6092,6828,6084,6793Z"/>
                    <path d="M4915.579654,6336.891571c-112-19-140-43-115-101c17-42,91-141,139-187c39-37,43-55,24-96s-76-65-155-65c-89,1-141,24-184,84-35,46-56,55-77,34-28-28-5-95,48-136c14.030943-10.858699,18.725667-16.624894,35.08263-22.060337c5.569385-1.850715-19.019728-63.134769-17.027456-120.363086c9.120556-261.989379,95.135543-133.515975,99-16-3.419643,129.999998,45.496924,101.763421,57.485032,100.423423c39.436851-4.408144,123.879778-15.98243,210.459794,45l40,29l37-29c72-58,190-76,292-45c104,32,192,153,141,196-21,18-41,7-70-39-33-53-72-72-165-78-58-4-83-2-107,10-32,17-83,71-83,89c0,5,37,49,81,96c131,140,148,203,64,238-44,18-222,26-295,13Zm234-69c14-5-3.000263,37.564189-3.000263,28.564189c0-25-95.789009.002569-119.789009.002569-27,0-96.999554-22.00462-88.999554-.00462c4,9-39.000536-31.561997-.000536-28.561997c123,7,187.789362,9.999859,211.789362-.000141Z" transform="translate(32.149637 26.317316)"/>
                </g>
                <path d="M176.083638,282.769547c4.683304.850501,16.026911,1.328832,20.906871-.906041l.543624-32.05537l20.19094-.177003.2553-15.406807-20.740702-.516189v-13.545954h31.867527c0-4.725263,0-13.604251,0-17.758385l-11.730788.000001-3.267861.294463-2.143184.226509-1.027018,1.35906-1.716297,1.472316q-2.015939.249161-2.197147.249161t-1.13255,0q-2.151845,0-2.151845-.249161t-1.857382,0l-.883389-.498322-2.151845-.951342-.792785-.022651q-1.064597-.656879-1.291107-.656879t-.656879-1.223154l-1.449664-1.019295-18.327717-.498323-.744425,7.822969.543624,1.622499.634228,1.13255l1.109899,1.653523.928691,1.698825.22651,2.174496q.249161,2.854026.249161,3.17114t-1.070627,1.721476l-2.50823,2.03859.385067,58.847298Z" transform="translate(0.000001 0.000001)"/>
            </g>
        </g>
        <g transform="matrix(0.005773 0 0 -0.005773 455.279497 546.065734)">
            <path d="M3882,3078c-35,17-2-4-2,0s29,37,64,75c71,75,127,173,151,263c18,67,21,214,6,290-46,234-242,427-478,469-94,17-117,17-211,0-177-32-342-156-422-317-90-184-92-363-4-546c44-92,156-210,248-261c117-65,436-57,436-57c12.602923-16.803897,202.9147,71.363649,210.006283,76.908205M3550,4052c0-5-20-23-45-40l-46-32-9,26c-13,33-13,41,3,47c20,9,97,8,97-1Zm245-86c16-14,27-27,25-29-3-2-30-18-60-35-84-47-182-134-255-225-87-108-176-286-206-411l-23-95-43,31c-52,38-55,60-17,174c83,256,248,471,453,594c69,42,70,42,126-4Zm-467-19c12-29,22-57,22-62-1-10-46-65-53-65-6,0-57,126-57,140c0,8,46,39,61,40c3,0,15-24,27-53Zm-132-213l23-32-22-41c-12-22-25-41-28-41-8,0-49,54-74,97l-19,33l28,57l28,58l20-50c11-27,30-64,44-81Zm744,50c11-25,20-47,20-48c0-2-35-24-78-49-175-101-321-313-362-525l-13-62-36,6c-73,12-73,12-65,57c38,228,164,436,351,580c61,47,129,86,151,87c7,0,22-21,32-46Zm50-225c0,0-55-229-75-229-11,0-135,84-135,92c0,25,171,168,202,168c4,0,8-14,8-31Zm-887-104l-16-48-15,28c-8,15-17,55-20,88l-5,60l36-40l37-40-17-48Zm710-223c9-12,6-19-18-38-28-23-125-74-140-74-10,0,5,78,23,125c26,67,29,68,79,33c24-18,49-38,56-46Z" transform="matrix(0.987676 0 0 0.987676 4529.861234 447.731599)" fill-rule="evenodd" stroke-width="29"/>
        </g>
    </g>
</svg>