<svg width="24" height="24" viewBox="0 0 24 24" fill="none" xmlns="http://www.w3.org/2000/svg">
<path fill-rule="evenodd" clip-rule="evenodd" d="M2.51534 18L3.69534 16.818C4.07334 16.44 4.28134 15.938 4.28134 15.404V10.727C4.28134 9.36996 4.87134 8.07296 5.90134 7.17096C6.93934 6.26096 8.26134 5.86096 9.63834 6.04196C11.9653 6.35096 13.7203 8.45496 13.7203 10.937V15.404C13.7203 15.938 13.9283 16.44 14.3053 16.817L15.4863 18H2.51534ZM11.0003 20.341C11.0003 21.24 10.0843 22 9.00034 22C7.91634 22 7.00034 21.24 7.00034 20.341V20H11.0003V20.341ZM17.5213 17.208L15.7203 15.404V10.937C15.7203 7.45596 13.2183 4.49896 9.90034 4.05996C7.97834 3.80396 6.03834 4.39096 4.58334 5.66696C3.11934 6.94896 2.28134 8.79296 2.28134 10.727L2.28034 15.404L0.479335 17.208C0.0103353 17.678 -0.128665 18.377 0.125335 18.99C0.380335 19.604 0.973335 20 1.63734 20H5.00034V20.341C5.00034 22.359 6.79434 24 9.00034 24C11.2063 24 13.0003 22.359 13.0003 20.341V20H16.3633C17.0273 20 17.6193 19.604 17.8733 18.991C18.1283 18.377 17.9903 17.677 17.5213 17.208Z" fill="white"/>
</svg>
